<mxfile host="app.diagrams.net" modified="2023-01-20T15:06:23.832Z" agent="5.0 (Macintosh; Intel Mac OS X 10_15_7) AppleWebKit/537.36 (KHTML, like Gecko) Chrome/109.0.0.0 Safari/537.36" version="20.8.5" etag="GUZ4pccP3e-eXDw8W740" type="github">
  <diagram id="yCp3yy1CDkCnGNzbleE7" name="Page-1">
    <mxGraphModel dx="954" dy="616" grid="1" gridSize="10" guides="1" tooltips="1" connect="1" arrows="1" fold="1" page="1" pageScale="1" pageWidth="850" pageHeight="1100" math="0" shadow="0">
      <root>
        <mxCell id="0" />
        <mxCell id="1" parent="0" />
        <mxCell id="oboSt407GrpLVynpOdHt-3" value="" style="edgeStyle=orthogonalEdgeStyle;rounded=0;orthogonalLoop=1;jettySize=auto;html=1;" edge="1" parent="1" target="oboSt407GrpLVynpOdHt-2">
          <mxGeometry relative="1" as="geometry">
            <mxPoint x="270" y="50" as="sourcePoint" />
          </mxGeometry>
        </mxCell>
        <mxCell id="oboSt407GrpLVynpOdHt-1" value="Start" style="ellipse;whiteSpace=wrap;html=1;fillColor=#d5e8d4;strokeColor=#82b366;" vertex="1" parent="1">
          <mxGeometry x="220" y="30" width="120" height="60" as="geometry" />
        </mxCell>
        <mxCell id="oboSt407GrpLVynpOdHt-5" value="" style="edgeStyle=orthogonalEdgeStyle;rounded=0;orthogonalLoop=1;jettySize=auto;html=1;" edge="1" parent="1" source="oboSt407GrpLVynpOdHt-2" target="oboSt407GrpLVynpOdHt-4">
          <mxGeometry relative="1" as="geometry" />
        </mxCell>
        <mxCell id="oboSt407GrpLVynpOdHt-2" value="User enters file name" style="shape=parallelogram;perimeter=parallelogramPerimeter;whiteSpace=wrap;html=1;fixedSize=1;" vertex="1" parent="1">
          <mxGeometry x="210" y="120" width="140" height="70" as="geometry" />
        </mxCell>
        <mxCell id="oboSt407GrpLVynpOdHt-7" value="FileNotFound" style="edgeStyle=orthogonalEdgeStyle;rounded=0;orthogonalLoop=1;jettySize=auto;html=1;" edge="1" parent="1" source="oboSt407GrpLVynpOdHt-4">
          <mxGeometry relative="1" as="geometry">
            <mxPoint x="150" y="270" as="targetPoint" />
          </mxGeometry>
        </mxCell>
        <mxCell id="oboSt407GrpLVynpOdHt-10" value="" style="edgeStyle=orthogonalEdgeStyle;rounded=0;orthogonalLoop=1;jettySize=auto;html=1;" edge="1" parent="1" source="oboSt407GrpLVynpOdHt-4" target="oboSt407GrpLVynpOdHt-9">
          <mxGeometry relative="1" as="geometry" />
        </mxCell>
        <mxCell id="oboSt407GrpLVynpOdHt-4" value="Try to open file" style="rhombus;whiteSpace=wrap;html=1;" vertex="1" parent="1">
          <mxGeometry x="240" y="230" width="80" height="80" as="geometry" />
        </mxCell>
        <mxCell id="oboSt407GrpLVynpOdHt-8" style="edgeStyle=orthogonalEdgeStyle;rounded=0;orthogonalLoop=1;jettySize=auto;html=1;entryX=0;entryY=0.5;entryDx=0;entryDy=0;" edge="1" parent="1" source="oboSt407GrpLVynpOdHt-6" target="oboSt407GrpLVynpOdHt-2">
          <mxGeometry relative="1" as="geometry">
            <mxPoint x="100" y="160" as="targetPoint" />
            <Array as="points">
              <mxPoint x="100" y="160" />
            </Array>
          </mxGeometry>
        </mxCell>
        <mxCell id="oboSt407GrpLVynpOdHt-6" value="tell user file could not be opened" style="shape=parallelogram;perimeter=parallelogramPerimeter;whiteSpace=wrap;html=1;fixedSize=1;" vertex="1" parent="1">
          <mxGeometry x="10" y="240" width="150" height="60" as="geometry" />
        </mxCell>
        <mxCell id="oboSt407GrpLVynpOdHt-9" value="parse_file()" style="shape=process;whiteSpace=wrap;html=1;backgroundOutline=1;fillColor=#fff2cc;strokeColor=#d6b656;" vertex="1" parent="1">
          <mxGeometry x="220" y="360" width="120" height="60" as="geometry" />
        </mxCell>
      </root>
    </mxGraphModel>
  </diagram>
</mxfile>
